<svg xmlns="http://www.w3.org/2000/svg" width="51.474" height="51.472" viewBox="0 0 51.474 51.472">
  <g id="edit" transform="translate(0 -0.501)">
    <path id="Path_6619" data-name="Path 6619" d="M36.461,128.711H6.434A6.442,6.442,0,0,1,0,122.277V92.251a6.442,6.442,0,0,1,6.434-6.434H23.592a2.145,2.145,0,0,1,0,4.29H6.434A2.147,2.147,0,0,0,4.29,92.251v30.026a2.147,2.147,0,0,0,2.145,2.145H36.461a2.147,2.147,0,0,0,2.145-2.145V105.119a2.145,2.145,0,0,1,4.29,0v17.158A6.442,6.442,0,0,1,36.461,128.711Zm0,0" transform="translate(0 -76.738)" fill="#141a35"/>
    <g id="Group_861" data-name="Group 861" transform="translate(18.278 0.501)">
      <path id="Path_6620" data-name="Path 6620" d="M200.608,68.262l-16.97,16.969a1.085,1.085,0,0,0-.294.547l-1.516,7.584a1.071,1.071,0,0,0,1.053,1.282,1.019,1.019,0,0,0,.21-.021l7.582-1.516a1.068,1.068,0,0,0,.549-.294l16.969-16.969Zm0,0" transform="translate(-181.808 -61.449)" fill="#141a35"/>
      <path id="Path_6621" data-name="Path 6621" d="M402,2.069a5.366,5.366,0,0,0-7.582,0l-2.968,2.968,7.582,7.582L402,9.651a5.361,5.361,0,0,0,0-7.581Zm0,0" transform="translate(-370.37 -0.501)" fill="#141a35"/>
    </g>
  </g>
</svg>
