<svg xmlns="http://www.w3.org/2000/svg" width="50.223" height="47.676" viewBox="0 0 50.223 47.676">
  <path id="rock-guitar" d="M50.223,1.962a1.962,1.962,0,0,1-1.962,1.962H46.6L30.429,20.044c.376.134.747.228,1.135.327a8.026,8.026,0,0,1,4.155,2.177,5.188,5.188,0,0,1,1.555,3.506,5.4,5.4,0,0,1-2.062,4.2,10.833,10.833,0,0,1-2.522,1.59,3.115,3.115,0,0,0-.869.513,1.962,1.962,0,1,1-2.827-2.72,6.392,6.392,0,0,1,1.989-1.326,7.018,7.018,0,0,0,1.683-1.043,1.632,1.632,0,0,0,.685-1.136,1.306,1.306,0,0,0-.407-.81A4.222,4.222,0,0,0,30.6,24.175a11.052,11.052,0,0,1-3.121-1.188l-5.389,5.374.862.843a1.962,1.962,0,1,1-2.744,2.805l-4.513-4.415a1.962,1.962,0,0,1,2.744-2.8l.845.827,5.263-5.248a7.149,7.149,0,0,1-1.3-4.25c.093-2.693,1.729-5.1,3.993-8.431l.217-.32c-1.27.347-2.752,1.156-4.963,3.735a14.861,14.861,0,0,0-2.1,3.745,11.938,11.938,0,0,1-2.344,3.916c-2.38,2.37-4.984,2.2-7.077,2.065C8.944,20.7,7.479,20.6,5.8,22.282c-1.368,1.367-2.144,2.908-1.79,6.358C4.374,32.192,6.054,35.3,9.3,38.415l.056.055c2.951,3.071,6.349,4.933,9.568,5.243a7.3,7.3,0,0,0,5.684-1.7,5.262,5.262,0,0,0,1.179-2.16,1.962,1.962,0,0,1,3.726,1.229,9.218,9.218,0,0,1-2.13,3.705,10.92,10.92,0,0,1-7.645,2.884q-.593,0-1.19-.057c-4.2-.4-8.349-2.617-11.994-6.4C2.672,37.48.563,33.5.106,29.041c-.431-4.206.441-7.058,2.919-9.534,2.935-2.935,5.979-2.739,8.2-2.594,1.981.128,2.981.143,4.061-.937l.027-.027A9.573,9.573,0,0,0,16.8,13.263a18.165,18.165,0,0,1,2.714-4.715c3.931-4.584,6.642-5,8.621-5.309.185-.028.359-.056.52-.084a3.125,3.125,0,0,1,3.167,1.368,3.066,3.066,0,0,1,0,3.383c-.468.705-.911,1.357-1.34,1.987-1.894,2.787-3.263,4.8-3.317,6.36a2.728,2.728,0,0,0,.26,1.241L44.4.573A1.961,1.961,0,0,1,45.784,0h2.477A1.962,1.962,0,0,1,50.223,1.962ZM10.578,30a1.962,1.962,0,0,0,0,2.775l4.415,4.414a1.962,1.962,0,1,0,2.775-2.775L13.353,30A1.962,1.962,0,0,0,10.578,30Zm0,0" transform="translate(0)" fill="#141a35"/>
</svg>
