<svg xmlns="http://www.w3.org/2000/svg" width="52.142" height="52.04" viewBox="0 0 52.142 52.04">
  <path id="rating" d="M8.44,32.133a2.036,2.036,0,0,0,2.825-.56,17.715,17.715,0,0,1,29.409-.036,2.037,2.037,0,0,0,3.38-2.274,21.738,21.738,0,0,0-10.715-8.341,11.508,11.508,0,1,0-14.593-.045A21.732,21.732,0,0,0,7.88,29.308,2.037,2.037,0,0,0,8.44,32.133ZM26.071,4.574a7.434,7.434,0,1,1-7.434,7.434A7.443,7.443,0,0,1,26.071,4.574Zm8.122,31.991-3.036,2.19a1.275,1.275,0,0,0-.468,1.431l1.223,3.544a1.285,1.285,0,0,1,.065.459,1.343,1.343,0,0,1-2.111.972L26.829,42.97a1.3,1.3,0,0,0-1.515,0l-3.036,2.191a1.342,1.342,0,0,1-2.112-.972,1.305,1.305,0,0,1,.066-.459l1.222-3.544a1.275,1.275,0,0,0-.468-1.431l-3.036-2.19a1.374,1.374,0,0,1,.758-2.457h3.753a1.173,1.173,0,0,0,1.226-.742l1.16-3.567a1.292,1.292,0,0,1,2.452,0l1.16,3.567a1.173,1.173,0,0,0,1.226.742h3.753A1.374,1.374,0,0,1,34.193,36.564Zm17.414,7.129-3.036,2.19a1.275,1.275,0,0,0-.468,1.431l1.223,3.544a1.285,1.285,0,0,1,.065.459,1.343,1.343,0,0,1-2.111.972L44.243,50.1a1.3,1.3,0,0,0-1.515,0L39.691,52.29a1.342,1.342,0,0,1-2.112-.972,1.305,1.305,0,0,1,.066-.459l1.222-3.544a1.275,1.275,0,0,0-.468-1.431l-3.036-2.19a1.374,1.374,0,0,1,.758-2.457h3.753a1.173,1.173,0,0,0,1.226-.742l1.16-3.567a1.292,1.292,0,0,1,2.452,0l1.16,3.567a1.173,1.173,0,0,0,1.226.742H50.85A1.374,1.374,0,0,1,51.608,43.693Zm-34.829,0-3.036,2.19a1.275,1.275,0,0,0-.468,1.431L14.5,50.859a1.285,1.285,0,0,1,.065.459,1.343,1.343,0,0,1-2.111.972L9.414,50.1a1.3,1.3,0,0,0-1.515,0L4.862,52.29a1.342,1.342,0,0,1-2.112-.972,1.305,1.305,0,0,1,.066-.459l1.222-3.544a1.275,1.275,0,0,0-.468-1.431L.534,43.693a1.374,1.374,0,0,1,.758-2.457H5.045a1.173,1.173,0,0,0,1.226-.742l1.16-3.567a1.292,1.292,0,0,1,2.452,0l1.16,3.567a1.173,1.173,0,0,0,1.226.742h3.753A1.374,1.374,0,0,1,16.779,43.693Z" transform="translate(0 -0.5)" fill="#141a35"/>
</svg>
