<svg xmlns="http://www.w3.org/2000/svg" width="46.006" height="46" viewBox="0 0 46.006 46">
  <g id="Group_886" data-name="Group 886" transform="translate(-5871.497 146.336)">
    <path id="add-group" d="M26.64,30.655a17.061,17.061,0,0,0-3.584-1.913,9.146,9.146,0,0,0,2.975-6.034,13.526,13.526,0,0,1,17.151-1.4,1.8,1.8,0,1,0,2.056-2.947,17.08,17.08,0,0,0-3.585-1.913,9.164,9.164,0,1,0-12.338-.02q-.376.145-.748.307A17.065,17.065,0,0,0,25.4,18.55,9.163,9.163,0,1,0,10.7,28.707,17.281,17.281,0,0,0,.266,39.458,5.391,5.391,0,0,0,5.4,46.5H21.031a1.8,1.8,0,0,0,0-3.594H5.4a1.8,1.8,0,0,1-1.711-2.348A13.864,13.864,0,0,1,16.858,31.18,13.441,13.441,0,0,1,24.584,33.6a1.8,1.8,0,1,0,2.056-2.947ZM35.5,4.094a5.57,5.57,0,1,1-5.57,5.57A5.577,5.577,0,0,1,35.5,4.094Zm-18.6,12.3a5.57,5.57,0,1,1-5.57,5.57A5.577,5.577,0,0,1,16.9,16.391Zm29.11,21.574a1.8,1.8,0,0,1-1.8,1.8H39.269V44.7a1.8,1.8,0,1,1-3.594,0V39.762H30.734a1.8,1.8,0,0,1,0-3.594h4.941V31.227a1.8,1.8,0,0,1,3.594,0v4.941H44.21A1.8,1.8,0,0,1,46.007,37.965Zm0,0" transform="translate(5871.496 -146.836)" fill="#f27c67"/>
  </g>
</svg>
