<svg xmlns="http://www.w3.org/2000/svg" width="50.7" height="49.664" viewBox="0 0 50.7 49.664">
  <g id="Group_885" data-name="Group 885" transform="translate(-5535.65 150)">
    <path id="wall-clock" d="M23.592,47.184A23.592,23.592,0,0,1,6.91,6.91,23.577,23.577,0,0,1,43.187,36.689a1.843,1.843,0,1,1-3.064-2.049,19.773,19.773,0,1,0-6.233,5.991,1.843,1.843,0,1,1,1.91,3.153A23.554,23.554,0,0,1,23.592,47.184Zm-6-14.99,7.3-7.3a1.843,1.843,0,0,0,.54-1.3V8.847a1.843,1.843,0,0,0-3.686,0V22.828L14.99,29.587A1.843,1.843,0,1,0,17.6,32.194Z" transform="translate(5535.65 -150)" fill="#f27c67"/>
    <path id="Polygon_7" data-name="Polygon 7" d="M9.664,1.274a1,1,0,0,1,1.672,0l8.648,13.177A1,1,0,0,1,19.148,16H1.852a1,1,0,0,1-.836-1.549Z" transform="translate(5586.35 -121.336) rotate(90)" fill="#f27c67"/>
  </g>
</svg>
