<svg xmlns="http://www.w3.org/2000/svg" width="48.458" height="46" viewBox="0 0 48.458 46">
  <g id="Group_887" data-name="Group 887" transform="translate(-6195.771 145.336)">
    <path id="rock-guitar_1_" data-name="rock-guitar(1)" d="M48.458,1.893a1.893,1.893,0,0,1-1.893,1.893H44.958L29.36,19.34c.362.129.721.22,1.1.315a7.744,7.744,0,0,1,4.009,2.1,5.005,5.005,0,0,1,1.5,3.382,5.205,5.205,0,0,1-1.989,4.053,10.453,10.453,0,0,1-2.433,1.534,3.005,3.005,0,0,0-.838.5A1.893,1.893,0,0,1,27.975,28.6a6.167,6.167,0,0,1,1.919-1.28,6.771,6.771,0,0,0,1.624-1.006,1.575,1.575,0,0,0,.661-1.1,1.26,1.26,0,0,0-.393-.782,4.073,4.073,0,0,0-2.262-1.108,10.663,10.663,0,0,1-3.011-1.146l-5.2,5.185.831.813A1.893,1.893,0,1,1,19.5,30.884l-4.354-4.259a1.893,1.893,0,0,1,2.648-2.706l.816.8,5.078-5.064a6.9,6.9,0,0,1-1.254-4.1c.089-2.6,1.668-4.921,3.853-8.135l.21-.308c-1.225.335-2.655,1.116-4.788,3.6a14.339,14.339,0,0,0-2.029,3.613A11.519,11.519,0,0,1,17.414,18.1c-2.3,2.287-4.809,2.124-6.828,1.993-1.956-.127-3.37-.218-4.991,1.4C4.276,22.818,3.527,24.3,3.869,27.633c.352,3.427,1.973,6.423,5.1,9.431l.054.053c2.847,2.964,6.126,4.76,9.231,5.058a7.046,7.046,0,0,0,5.484-1.636,5.077,5.077,0,0,0,1.138-2.084,1.893,1.893,0,0,1,3.6,1.186,8.894,8.894,0,0,1-2.056,3.575A10.536,10.536,0,0,1,19.043,46q-.572,0-1.148-.055c-4.054-.39-8.055-2.525-11.573-6.177C2.578,36.162.543,32.319.1,28.02c-.416-4.059.426-6.81,2.816-9.2,2.832-2.832,5.769-2.642,7.913-2.5,1.911.124,2.876.138,3.918-.9l.026-.026A9.237,9.237,0,0,0,16.212,12.8a17.527,17.527,0,0,1,2.619-4.549c3.793-4.423,6.409-4.827,8.318-5.122.178-.027.346-.054.5-.081a3.015,3.015,0,0,1,3.055,1.319,2.958,2.958,0,0,1,0,3.264c-.451.68-.879,1.309-1.292,1.917-1.828,2.689-3.148,4.632-3.2,6.137a2.632,2.632,0,0,0,.251,1.2L42.839.553A1.892,1.892,0,0,1,44.175,0h2.39A1.893,1.893,0,0,1,48.458,1.893ZM10.206,28.949a1.893,1.893,0,0,0,0,2.677l4.259,4.259a1.893,1.893,0,1,0,2.677-2.677l-4.259-4.259A1.893,1.893,0,0,0,10.206,28.949Zm0,0" transform="translate(6195.771 -145.336)" fill="#f27c67"/>
  </g>
</svg>
