<svg xmlns="http://www.w3.org/2000/svg" width="63.783" height="42.145" viewBox="0 0 63.783 42.145">
  <g id="Group_888" data-name="Group 888" transform="translate(-6508.108 147.481)">
    <g id="sound-waves" transform="translate(6504.208 -168.681)">
      <path id="Path_6623" data-name="Path 6623" d="M43.421,39.2A2.084,2.084,0,0,0,41.3,41.321V53.767a2.121,2.121,0,0,0,4.243,0V41.321A2.084,2.084,0,0,0,43.421,39.2Z" transform="translate(-10.953 -5.272)" fill="#f27c67"/>
      <path id="Path_6624" data-name="Path 6624" d="M34.121,29.9A2.084,2.084,0,0,0,32,32.021v25.6a2.121,2.121,0,1,0,4.243,0v-25.6A2.084,2.084,0,0,0,34.121,29.9Z" transform="translate(-8.23 -2.548)" fill="#f27c67"/>
      <path id="Path_6625" data-name="Path 6625" d="M24.721,21.2A2.084,2.084,0,0,0,22.6,23.321v37.9a2.121,2.121,0,1,0,4.243,0v-37.9A2.084,2.084,0,0,0,24.721,21.2Z" transform="translate(-5.477)" fill="#f27c67"/>
      <path id="Path_6626" data-name="Path 6626" d="M15.421,29.9A2.084,2.084,0,0,0,13.3,32.021v25.6a2.121,2.121,0,0,0,4.243,0v-25.6A2.084,2.084,0,0,0,15.421,29.9Z" transform="translate(-2.753 -2.548)" fill="#f27c67"/>
      <path id="Path_6627" data-name="Path 6627" d="M6.021,38.6A2.084,2.084,0,0,0,3.9,40.721V54.015a2.084,2.084,0,0,0,2.121,2.121,2.084,2.084,0,0,0,2.121-2.121V40.721A2.084,2.084,0,0,0,6.021,38.6Z" transform="translate(0 -5.096)" fill="#f27c67"/>
      <path id="Path_6628" data-name="Path 6628" d="M71.521,21.2A2.084,2.084,0,0,0,69.4,23.321v37.9a2.121,2.121,0,1,0,4.243,0v-37.9A2.084,2.084,0,0,0,71.521,21.2Z" transform="translate(-19.183)" fill="#f27c67"/>
      <path id="Path_6629" data-name="Path 6629" d="M62.121,29.9A2.084,2.084,0,0,0,60,32.021v25.6a2.121,2.121,0,0,0,4.243,0v-25.6A2.084,2.084,0,0,0,62.121,29.9Z" transform="translate(-16.43 -2.548)" fill="#f27c67"/>
      <path id="Path_6630" data-name="Path 6630" d="M52.821,34.6A2.084,2.084,0,0,0,50.7,36.721V55.672a2.121,2.121,0,1,0,4.243,0V36.721A2.084,2.084,0,0,0,52.821,34.6Z" transform="translate(-13.706 -3.924)" fill="#f27c67"/>
      <path id="Path_6631" data-name="Path 6631" d="M80.821,29.9A2.084,2.084,0,0,0,78.7,32.021v25.6a2.121,2.121,0,1,0,4.243,0v-25.6A2.084,2.084,0,0,0,80.821,29.9Z" transform="translate(-21.907 -2.548)" fill="#f27c67"/>
      <path id="Path_6632" data-name="Path 6632" d="M90.221,38.6A2.084,2.084,0,0,0,88.1,40.721V54.015a2.121,2.121,0,0,0,4.243,0V40.721A2.084,2.084,0,0,0,90.221,38.6Z" transform="translate(-24.66 -5.096)" fill="#f27c67"/>
    </g>
  </g>
</svg>
