<svg xmlns="http://www.w3.org/2000/svg" width="45.407" height="43.988" viewBox="0 0 45.407 43.988">
  <g id="guarantee" transform="translate(0 -8)">
    <path id="Path_6622" data-name="Path 6622" d="M42.974,23.38c-.6-1.855-.344-4.64-1.9-6.791-1.57-2.167-4.3-2.783-5.841-3.911-1.525-1.115-2.944-3.543-5.51-4.38-2.493-.814-5.043.29-7.019.29s-4.526-1.1-7.019-.291c-2.565.837-3.985,3.265-5.509,4.38C8.635,13.8,5.9,14.422,4.333,16.589c-1.556,2.149-1.3,4.94-1.9,6.791C1.863,25.142,0,27.256,0,29.994s1.861,4.846,2.432,6.613c.6,1.855.344,4.64,1.9,6.791,1.569,2.167,4.3,2.783,5.841,3.911,1.525,1.115,2.944,3.543,5.51,4.38,2.492.813,5.045-.29,7.019-.29s4.531,1.1,7.019.291c2.565-.837,3.984-3.264,5.509-4.38S39.5,45.565,41.073,43.4c1.556-2.149,1.3-4.94,1.9-6.791.569-1.762,2.432-3.876,2.432-6.614S43.546,25.149,42.974,23.38ZM39.6,35.516c-.7,2.162-.515,4.581-1.4,5.8-.9,1.236-3.247,1.8-5.062,3.128-1.795,1.313-3.053,3.393-4.516,3.871-1.384.452-3.64-.466-5.919-.466-2.3,0-4.528.919-5.919.466-1.463-.477-2.719-2.557-4.516-3.871s-4.169-1.9-5.062-3.128c-.88-1.216-.7-3.652-1.4-5.8-.68-2.105-2.26-3.928-2.26-5.523s1.579-3.413,2.26-5.523c.7-2.162.515-4.581,1.4-5.8.895-1.235,3.248-1.8,5.062-3.128s3.051-3.393,4.516-3.871c1.383-.451,3.646.466,5.919.466,2.3,0,4.527-.92,5.919-.466,1.463.477,2.72,2.557,4.516,3.871s4.169,1.9,5.062,3.128c.881,1.216.7,3.649,1.4,5.8h0c.68,2.105,2.26,3.928,2.26,5.523S40.281,33.407,39.6,35.516ZM30.875,24.3a1.774,1.774,0,0,1,0,2.508L22,35.687a1.774,1.774,0,0,1-2.508,0L14.532,30.73a1.774,1.774,0,1,1,2.508-2.508l3.7,3.7L28.366,24.3a1.774,1.774,0,0,1,2.509,0Z" transform="translate(0 0)" fill="#141a35"/>
  </g>
</svg>
