<?xml version="1.0" standalone="no"?>
<!DOCTYPE svg PUBLIC "-//W3C//DTD SVG 20010904//EN"
 "http://www.w3.org/TR/2001/REC-SVG-20010904/DTD/svg10.dtd">
<svg version="1.0" xmlns="http://www.w3.org/2000/svg"
 width="2394.000000pt" height="3882.000000pt" viewBox="0 0 2394.000000 3882.000000"
 preserveAspectRatio="xMidYMid meet">
<metadata>
Created by potrace 1.16, written by Peter Selinger 2001-2019
</metadata>
<g transform="translate(0.000000,3882.000000) scale(0.100000,-0.100000)"
fill="#000000" stroke="none">
<path d="M0 19415 l0 -19405 11970 0 11970 0 0 19405 0 19405 -11970 0 -11970
0 0 -19405z m7838 3682 c-43 -6 -78 -14 -78 -19 0 -4 -37 -9 -82 -9 -46 -1
-73 -4 -60 -6 18 -4 22 -11 22 -44 0 -39 0 -39 40 -39 l40 0 0 40 c0 33 3 40
20 40 17 0 20 -7 20 -40 0 -33 -3 -40 -20 -40 -18 0 -20 -7 -20 -80 0 -73 2
-80 20 -80 20 0 20 -7 20 -880 0 -873 0 -880 -20 -880 -20 0 -20 -7 -20 -1280
0 -1273 0 -1280 20 -1280 18 0 20 -7 20 -80 0 -73 -2 -80 -20 -80 -20 0 -20
-7 -20 -400 0 -393 0 -400 20 -400 13 0 20 -7 20 -20 0 -13 7 -20 20 -20 19 0
20 -7 20 -140 l0 -140 -40 0 -40 0 0 -80 0 -80 41 0 41 0 -4 -92 c-2 -64 -7
-93 -16 -96 -7 -2 -24 -16 -38 -31 l-26 -26 -15 23 c-9 12 -26 22 -39 22 -12
0 -29 9 -37 20 -8 11 -16 17 -19 14 -3 -3 -15 7 -27 22 -11 15 -21 24 -21 20
0 -4 -13 1 -30 10 -21 13 -26 21 -17 27 8 6 6 7 -7 3 -24 -8 -46 10 -39 32 3
11 2 13 -4 5 -8 -11 -54 13 -114 60 -8 7 -31 23 -50 36 -239 170 -673 559
-930 837 -864 932 -1467 2040 -1779 3269 -140 549 -215 1092 -236 1698 l-7
197 1784 -2 c1241 -1 1760 -4 1707 -11z m-53 -6288 c4 -6 13 -8 20 -5 7 2 16
-2 19 -10 3 -8 -1 -14 -10 -14 -9 0 -12 -5 -8 -12 4 -7 -6 -1 -23 15 -16 15
-32 24 -36 20 -4 -3 -7 -1 -7 5 0 15 37 16 45 1z"/>
<path d="M7620 19180 c0 -38 2 -40 30 -40 28 0 30 2 30 40 0 38 -2 40 -30 40
-28 0 -30 -2 -30 -40z"/>
<path d="M7622 19023 c3 -33 7 -38 31 -41 26 -3 27 -1 27 37 0 39 -1 41 -31
41 -29 0 -30 -2 -27 -37z"/>
<path d="M7624 18886 c-12 -32 0 -61 29 -64 26 -3 27 -1 27 37 0 37 -2 41 -25
41 -14 0 -28 -6 -31 -14z"/>
<path d="M7624 18726 c-12 -32 0 -61 29 -64 26 -3 27 -1 27 37 0 37 -2 41 -25
41 -14 0 -28 -6 -31 -14z"/>
<path d="M7624 18566 c-12 -32 0 -61 29 -64 26 -3 27 -1 27 37 0 37 -2 41 -25
41 -14 0 -28 -6 -31 -14z"/>
<path d="M7627 18413 c-4 -3 -7 -21 -7 -40 0 -30 3 -33 30 -33 28 0 30 2 30
40 0 35 -3 40 -23 40 -13 0 -27 -3 -30 -7z"/>
<path d="M7600 18060 l0 -40 40 0 40 0 0 40 0 40 -40 0 -40 0 0 -40z"/>
<path d="M7600 17900 l0 -40 40 0 40 0 0 40 0 40 -40 0 -40 0 0 -40z"/>
<path d="M7600 17740 l0 -40 40 0 40 0 0 40 0 40 -40 0 -40 0 0 -40z"/>
<path d="M7650 17040 c0 -11 7 -20 15 -20 8 0 15 9 15 20 0 11 -7 20 -15 20
-8 0 -15 -9 -15 -20z"/>
<path d="M7650 16960 c0 -11 7 -20 15 -20 8 0 15 9 15 20 0 11 -7 20 -15 20
-8 0 -15 -9 -15 -20z"/>
<path d="M7713 16905 c-20 -22 -16 -25 27 -25 43 0 47 4 26 26 -18 18 -37 17
-53 -1z"/>
</g>
</svg>
